<?xml version="1.0" encoding="UTF-8"?>
<!DOCTYPE svg PUBLIC "-//W3C//DTD SVG 1.0//EN" "http://www.w3.org/TR/2001/REC-SVG-20010904/DTD/svg10.dtd">
<!-- Creator: CorelDRAW 2017 -->
<svg xmlns="http://www.w3.org/2000/svg" xml:space="preserve" width="7.6in" height="6.1in" version="1.0" style="shape-rendering:geometricPrecision; text-rendering:geometricPrecision; image-rendering:optimizeQuality; fill-rule:evenodd; clip-rule:evenodd"
viewBox="0 0 7600 6100"
 xmlns:xlink="http://www.w3.org/1999/xlink">
 <defs>
  <style type="text/css">
   <![CDATA[
    .fil4 {fill:none}
    .fil0 {fill:#040204}
    .fil1 {fill:#6666CC}
    .fil6 {fill:#6699FF}
    .fil5 {fill:#FCFEFC}
    .fil3 {fill:#FF0066}
    .fil2 {fill:#FF6699}
    .fil7 {fill:white}
   ]]>
  </style>
 </defs>
 <g id="Layer_x0020_1">
  <metadata id="CorelCorpID_0Corel-Layer"/>
  <g id="_1953169742336">
   <path class="fil0" d="M5972.33 158.28c-4.8,88.86 66.46,113.28 71.34,200.06 -48.32,-44.42 -217.95,-285.2 -316.4,-261.37 -50.1,52.88 -24.01,119.72 -18.32,177.01 -128.67,-87.54 -196.78,-162.8 -437.5,-180.6 -79.77,-5.9 -144.3,6.75 -203.22,38.29 -34.03,18.21 -49.55,29.76 -72.67,66.44 -6.81,10.81 -20.54,37.04 -24.53,52.96 -10.97,43.82 -9.74,31.81 2.39,53.32 50.66,66.67 332.57,82.72 329.8,187.07 -288.31,-49.39 -308.8,29.48 -482.79,123.81 -116.54,63.19 -336.75,149.28 -282.75,372.11 87.46,19.57 68.49,-30.91 134.83,6.24 -141.3,86.11 -276.96,133.31 -301.83,332.61 149.47,60.25 220.63,-102.66 460.7,-10.72 -51.07,69.41 -113.89,25.85 -140.49,166.15 180.08,43.5 380.08,159.5 363.17,323.46 -166.42,-41.48 -199.17,-203.93 -433.94,-280.16l22.06 -75.89c-158.77,-83.35 -354.05,-102.05 -500.43,-14.09 -37.12,-94.82 -13.91,-98.02 -85.7,-175.34 -57,-61.38 -122.98,-77.24 -209.22,-51.84 -24.19,77.68 56.89,164.35 46.63,288.34 -87.81,-63.37 -83.04,-117.07 -223.61,-171.8 -125.1,-48.71 -214.43,-57.12 -279.62,17.04 25.77,80.22 125.07,151.09 114.12,276.73 -179.57,-54.97 -275.26,-114.44 -436.02,-36.71 -124.07,59.99 -206.7,146.89 -255.17,317.93 -2.35,-2.51 -4.68,-9.84 -6.69,-7.84l-58.48 -53.46c-30.84,-18.16 -61.37,-30.26 -94.6,-49.03 29,-278.35 433.9,-228.51 495.37,-260.22 -11.03,-119.85 -124.85,-126.16 -101.49,-220.03 142.23,9.09 187.15,151.98 270.86,106.04 81.38,-63.27 -3.03,-196.07 -7.8,-263.88 151.89,49.35 145.76,-4.57 84.48,-145.64 -137.97,-317.61 -506.12,-378.65 -636.95,-494.71l52.31 -20.2c79.8,-15.53 128.98,-12.35 146.59,-118.86 -133.65,-163.24 -574.61,-83.88 -686.56,-23.68 29.1,-82.54 232.02,-161.86 272.47,-274.48 -297.29,-103.07 -518.22,-39.29 -710.89,169.03 -30.37,32.84 -51.3,61.3 -80.06,102.65 -20.7,29.76 -50.49,88.64 -78.47,108.31 -86.33,-114.15 -317.72,-233.76 -516.73,-234.97 -354,-2.17 -346.94,104.39 -423.44,257.69 -338.29,82.54 -291.59,150.85 -324.41,210.4 -26.55,48.17 -89.87,28.52 -89.57,105.13 67.95,36.48 114.04,31.69 177.41,25.56 75.93,-7.35 117.95,-1.04 199.63,23.88 -2.73,1.9 -6.28,1.07 -8.67,4.94 -12.89,20.95 -67.36,13.8 -91.1,14.78 -32.9,1.36 -72.75,3.74 -107.25,9.08 -185.51,28.7 -364.6,208.27 -412.05,397.94 -19.39,77.52 -44.61,151.46 -8.42,222.32 86.86,10.87 121.69,-102.04 207,-96.57 -25.37,54.44 -359.07,414.33 -208.92,670.29 95.08,-4.9 234.81,-246.79 350.64,-292.72 26.18,-10.39 9.25,-5.94 40.67,-11.7 -59.1,82.16 -219.03,158.74 -279.46,478.06 -48.81,257.95 72.1,304.15 -24.92,385.09 -30.21,25.2 -63.75,42.47 -83.01,93.5 57.03,38.89 125.45,45.57 184.5,29.43 45.62,-12.46 71.28,-34.76 106.56,-59.07 30.93,-21.31 1.94,-11.55 41,-19.35 -76.46,339.47 61.86,528.86 112.47,308.39l37.87 111.82c24.32,72.14 111.52,239.2 173.95,268.93 19.35,9.21 128.25,20.37 250.69,79.6 67.04,32.43 176.95,91.13 249.44,96.06 21.85,-46.44 3.34,-29.89 17.1,-80.64 36.48,55.38 44.72,157.02 163.72,150.24l14.36 -43.91c0.22,-4.7 -7.18,-47.96 -8.05,-51.88 -23.36,-105.78 -60.19,-191.93 -12.54,-313.52 44.56,-113.69 186.1,-202.18 291.34,-223.59l102.39 100.61c-44.57,228.24 -70.67,417.22 -12.89,639.95 15.21,58.62 46.58,131.38 57.29,185.36 -123.05,-25.11 -349.78,-116.11 -449.61,3.01 -86.53,103.24 -64.97,788.63 350.57,905.9 114.1,32.2 157.28,8.35 243.71,19 119.37,174.17 168.16,264.8 346.04,416.96 294.15,251.62 676.69,466.36 1023.21,648.72 588.88,309.9 657.53,196.3 1098.26,-80.1 149.56,-93.79 327.93,-180.19 472.24,-267.04 291.54,-175.46 580.68,-350.94 794.37,-783.83 404.6,78.77 613.57,-436.83 612.57,-774.39 -0.33,-109.47 -17.4,-272.5 -97.41,-320.96l24.65 -17.6c179.28,-112.54 20.06,119.15 432.21,-131.54 105.04,-63.89 194.56,-177.94 248.22,-295.36 20.24,-44.28 32.93,-105.35 60.68,-139.82 71.27,29.41 15.95,48.31 102.28,62.87 77.39,-52.61 92.23,-155.75 96.91,-247.35 119.99,4.15 100.54,-50.42 129.52,-165.19 25.6,-102.02 61.51,-221.24 78.62,-323.08 19.97,-118.86 -1.65,-170.37 -18.9,-266.43 51.03,43.94 76.93,147.26 160.28,161.06 139.03,23.02 80.79,-320.34 25.53,-430.89 -28.92,-57.84 -59.4,-110.82 -104.24,-164.12 -23.2,-27.57 -40.27,-46.85 -66.54,-73.87 -29.56,-30.43 -61.26,-52.52 -70.63,-83.93 128.03,35.29 145.94,120.31 250.69,135.77 104.11,-241.27 -191.94,-267.91 -228.82,-502.56 -35.04,-222.96 -306.54,-270.49 -550.33,-323.61 77.63,-107.91 331.29,-84.02 381.04,-182.05 -64.94,-148.24 -302.31,-151.34 -436.14,-134.34 -76.42,9.7 -152.8,39.35 -225.14,53.15 -61.78,-154.8 21.13,-159.01 -155.33,-360.6 -99.76,-113.97 -279.86,-168.75 -396.02,-73.97z"/>
   <path class="fil1" d="M6072.44 906.48c-24.93,-46.65 20.5,-195.37 -66.97,-372.14 -26.69,-53.94 -154.88,-228.76 -230.29,-275.74 19.44,94.86 149.43,190.96 72.73,322.25 -93.56,13.65 -86.96,-112.59 -126.74,-169.31 -97.43,-138.94 -633.93,-311.63 -694.48,-142.2 133.52,38.69 253.95,50.41 332.53,142.47 44.48,52.12 126.03,191.17 132.54,266.18 -131.46,-33.48 -474.64,-178.06 -568.07,-61.89 104.37,6.97 295.39,-36.98 340.77,84.93 -129.03,52.16 -544.16,-88.3 -683.1,215.39 50.14,-5.75 95,-33.75 142.65,-52.89 135.46,-54.41 353.62,-103.05 458.28,41.15 -123.07,91.64 -367.96,-96.06 -490.79,18.83 2.08,2.39 6.4,2.48 6.91,6.52l30.68 21.52c9.5,5.02 43.61,17.94 53.08,21.41 94.72,34.7 214.93,66.32 244.89,164.3 -110.52,33.6 -487.44,-88.42 -570.57,144.56 44.37,-14.93 73.25,-36.59 122.35,-45.59 121.12,-22.21 283.21,-1.72 383.31,74.93 30.81,23.59 32.53,20.5 34.42,54.48 -94.62,25.93 -196.05,10.74 -244.83,80.8 179.16,43.08 501.72,182.59 416.06,374.27 -81.2,181.7 -448.09,40.42 -482.91,-124.1 -351.4,-79.83 -280.24,4.24 -451.67,16.25 222.19,-317.99 234.42,-182.77 286.62,-258.27 -126.08,5.01 -246.13,43.91 -349.73,106.42 -19.04,11.49 -27.52,15.43 -47.24,30.71l-55.72 39.3c28.76,-158.07 42.09,-318.44 -127.06,-359 1.57,3.22 5.21,4.22 5.39,9.31 1.41,40.37 105.48,83.21 58.71,272.66 -27.2,110.19 -96.69,203.04 -188.01,199.28 -13.54,-188.43 -165.76,-416.4 -299.91,-392.13 144.19,128.24 227.78,398.63 23.75,497.95 -52.5,-71.6 10.57,-92.54 -152.88,-141.35 -173.07,-51.68 -301.33,-17 -434.07,96.36 -52.46,44.8 -104.54,104.74 -140.59,177.49 -91.66,-49.46 -36.8,-86.38 -222.33,-156.3 -16.21,-114.54 12.29,-223.17 86.13,-310.75 82.48,-97.83 132.29,-92.52 240.39,-136.39 -16.81,-29.71 -52.91,-50.6 -83.58,-64.94 -122.85,-57.46 -248.3,-48.33 -369.79,-59.52 73.58,-103.24 209.4,-108.62 372.1,-89.54 71.61,8.4 159.41,30.14 235.02,56.61 84.96,29.75 120.8,67.17 183,95.94 -29.33,-33.86 -30.92,-58.11 -81.72,-102.57 -39.25,-34.36 -87.87,-59.48 -131.1,-81.96 -98.88,-51.42 -260.59,-75.5 -363.61,-75.54 87.21,-162.28 480.24,17.2 655.31,25.03 -22.89,-179.96 -353.93,-277.27 -524.17,-302.82 -80.77,-12.12 -154.07,3.72 -219.44,-2.03 73.04,-84.23 284.63,-90.24 417.38,-83.2l-14.13 -13.17c-82.19,-59.09 -220.52,-70.36 -314.82,-59.37 -112,13.05 -232.6,62.8 -283.19,67.91 25.33,-74.28 82,-115.33 151.12,-132.65 21.33,-5.35 54.69,-4.48 72.71,-18.71 44.52,-35.14 20,-60.54 109.07,-87.93 71.87,-22.1 95.46,-4.65 145.16,-56.82 -176.78,-12.6 -544.53,32.26 -667.06,164.26 -55.98,60.31 -89.48,154.69 -171.03,142.64 -80.83,-282.52 224.13,-491.68 352,-574.3 -158.42,-7.19 -417.95,178.73 -537,324.44 -40,48.96 -70.48,119.93 -111.49,173.03l-20.13 21.76c-142.31,-107.61 -210.63,-187.15 -424.5,-258.74 -187.22,-62.67 -382.82,-85.65 -483.7,25.7 34.13,10.03 158.28,29.26 174.51,38.92 55.74,33.2 -25,16.91 49.31,53.65 88.51,43.77 285.57,64.24 254.07,279.37 -168.11,-90.52 -193.54,-124.3 -398.63,-174.59 -149.87,-36.75 -308.56,-37.67 -370.33,82.22 95.42,-9.11 235.3,-74.09 383,82.53 79.71,84.52 157.96,184.9 160.84,319.59 -100.19,-18.87 -203.77,-76.06 -327.03,-87.39 -256.69,-23.6 -584.24,94.01 -628.56,413.62 105.95,-51.89 185.6,-197.14 367.06,-152.53 -23.37,72.28 -107.92,70.61 -136.59,164.11 49.44,-12.61 73,-37.14 127.35,-62.7 121.78,-57.29 357.91,-103.2 426.41,34.27 -385.22,45.63 -689.24,135.88 -799.79,564.31 100.54,-36.56 183.23,-337.89 519,-355.39 89.6,-4.67 198.88,10.07 188.72,98.02 -111.07,28.54 -92.42,-66.55 -205.61,45.81 -163.99,162.78 -329.34,418.06 -295.8,663.2 67.64,-100.65 130.51,-420.04 481.52,-322 -97.2,72.54 -166.45,17.83 -309.91,220.73 -77.63,109.79 -173.16,251.14 -239.41,360.29 115.18,4.14 131.07,-173.02 261.72,-166.77 -13.69,47.43 -45.77,127.3 -36.05,161.15 70.43,-97.26 41.22,-128.32 151.22,-201.78 42.13,-28.13 162.4,-74.18 223.26,-78.01 -91.29,182.37 -184.83,285.83 -173.05,556.39 8.27,189.83 77.11,348.76 296.35,397.45l-25.52 -40.73c-30.82,-37.68 -54.97,-73.67 -72.73,-125.97 -63.15,-186 -18.31,-531.11 189.32,-565.17 -85.91,151.91 -135.43,212.47 -99.76,406.8 22.16,120.73 69.46,251.94 164.55,315.49 -15.73,-148.23 -52.51,-230.19 -11.23,-395.78 44.74,-179.49 108.93,-226.23 239.49,-265.5 -48.07,114.6 -115.85,117.46 -150,323.88 -20.93,126.57 -30.07,264.43 48.22,334.39 14.54,-167.41 13.48,-252.79 126.78,-373.33 106.07,-112.85 178,-121.22 348.37,-83.33 47.2,-115.14 -97.26,-176.06 -80.68,-287.01 12.69,-84.87 142.37,-176.58 191.97,-270.27 -20.46,-32.99 -46.74,-59.7 -55.93,-101.61 -11.09,-50.6 4.06,-97.93 30.97,-139.94 58.54,-91.42 114.48,-97.72 236.73,-54.77 68.16,-63.59 88.69,-93.35 204.95,-53.99 11.43,-46.24 25.94,-79.77 75.87,-97.96 50.65,-18.46 89.89,4.5 140.69,23.62 51.09,-27.57 51.47,-56.44 130.27,-45.58 62.58,8.62 112.3,38.63 152.08,68.6 -27.94,12.95 -3.3,8.57 -41.7,4.65 -86.73,-8.87 -183.55,-53.27 -222.79,121.76 -7.86,-6.11 -158.65,-197.09 -193.67,-90.8 -24.76,75.14 8.02,-61.54 -5.65,17.21 -6.09,35.09 10.79,70.1 21.11,100.08 18.36,53.36 34.48,100.97 -24.78,139.66l-4.57 -65.47c-1.02,-68.91 -63.53,-131.83 -125.85,-120.75 -46,24.49 -59.36,48.31 -93.56,90.96 -67.76,-29.69 -108.81,-86.59 -173.87,-6.31 -81.1,100.08 -36.11,128.63 22.16,181.57 -52.41,79.38 -88.74,100.46 -62.42,208.57 7.75,31.84 23.19,64.48 43.22,87.78 12.54,14.59 18.93,19.38 40.22,30.93l49.85 28.34c1.87,1.33 5.34,3.68 7.37,6.16 -42.81,28.75 -84.19,42.85 -139.41,-11.79 -44.16,-43.68 -52.63,-93.38 -100.7,-120.59 -54.08,108.28 -21.5,176.26 96.63,178.02 -41.2,86.41 -103.07,240.83 41.94,258.39 140.96,-225.9 135.74,-363.52 367.72,-628.17 258.51,-294.91 435.81,-253.63 496.24,-337.99l20.33 -30.82c1.18,-1.73 3.16,-5.28 5.32,-7.42 18.84,30.48 26.75,32.16 32.02,79.5 -117.33,108.51 -240.69,166.57 -391.38,315.08 -256.58,252.87 -513.97,647.29 -515.66,1037.53 -0.39,90.02 29.11,175.98 47.39,263.68 18.96,90.93 -33.88,215.35 54.7,257.29 211.37,-159.39 -78.4,-648.63 233.55,-945.53 31.35,-29.84 84.35,-56.84 102.61,-82.53 54.87,-77.18 51.49,-136.23 143.43,-230.97 153.13,-157.8 352.91,-202.46 502.66,-357.87 27.95,-29.02 55.48,-78.55 86.11,-106.52 20.94,58.32 -2.4,231.19 -29.84,307.97 156.09,5.93 250.43,-200.61 326.9,-317.04 1.18,-1.79 21.36,-28.47 21.41,-28.52 37.65,-35.58 3.78,-9.26 35.26,-23.98 -51.51,190.06 -21.06,444.37 185.6,531.69 -0.96,-116.24 -38.81,-184.85 -19.8,-330.31 11.46,-87.67 42.2,-174.87 103.02,-237.08 30.96,-31.67 31.16,-32.37 65.64,-41l105.02 302.92c60.48,165.66 13.11,218.64 -12.86,366.2 106.25,12.39 175.32,-86.24 207.76,-202.27 41.9,-149.85 24.09,-225.4 10.81,-351.77 168.72,-105.02 328.97,116.82 266.83,321.4 191.69,-60.65 85.36,-301.96 92.97,-408.4 223.42,-71.56 344.98,150.06 361.87,323.59 6.07,62.33 -15.1,171.95 -9.89,212.54 69.87,-9.55 90.72,-107.52 142.53,-145.22 165.94,65.76 495.69,389.26 557.95,584.33 74.87,234.57 -51.11,377.29 117.96,608.82 23.2,31.77 36.4,45.54 56.43,79.42 24.17,40.91 23.92,60.7 81.47,83.25 72.21,-599.64 -113.71,-1076.65 -506.32,-1471.12 -46.59,-46.8 -45.06,-23.77 -92.61,-28.54 -15.15,-65.71 -119.64,-203.54 -168.89,-248.25l16.56 -1.54c30.97,-0.94 8.47,12.71 43.36,-0.48 -15.22,-43.21 -61.96,-81.79 -112.03,-109.26 -51.94,-28.5 -130.22,-46.92 -157.49,-92.87 111.35,1.48 214,48.35 297.64,107.67l38.12 -38.64c57.84,-66.33 173.97,-78.85 248.81,-23.2 34.59,25.72 32.3,42.01 47.92,91.26 178.18,63.23 539.94,-147.02 403,269.6 101.59,31.13 89.69,50.6 108.6,138.2 68.71,22.43 110.03,30.78 140.87,80.33 94.03,151.1 -87.87,133.57 -113.86,238.61 -21.05,85.07 28.92,67.36 -28.31,167 152.21,42.82 123.46,70.31 222.29,131.37 -6.53,-49.62 -17.31,-23.87 -13.74,-78.07 138.33,33.91 197.1,121.51 222.63,217.35 36.2,135.94 12.09,222.89 -24.13,373.67 76.72,-16.5 104.91,-188.52 152.21,-252.51 1.78,-2.41 3.62,-5.07 5.53,-7.36l27.41 -24.82c85.75,86.55 -47.93,226.49 -67.85,318.42 217.63,-47.69 163.49,-541.42 178.58,-707.85 178.03,91.03 116.39,448.3 29.53,612.34 284.46,-79.5 300.95,-783.73 98.07,-967.13 22.55,-9.48 8.63,-10.3 42.41,-4.56 15.89,2.7 22.67,7.98 35.43,15.37 167.39,97.07 159.17,314.58 143.96,490.39 54.43,-8.34 6.75,-6.83 43.09,-15.47 58.68,-13.96 59.3,47.94 117.7,56.19 35.95,-82.63 3.41,-203.61 -24,-265.66 -32.6,-73.79 -123.89,-147.75 -134.8,-230.14 238.04,62.58 101.85,214.22 319.85,262.29 5.35,-71.25 -12.51,-24.13 -43.39,-77.98 -15.95,-27.81 -8.14,-70.86 -11.72,-108.61 -7.24,-76.27 -24.98,-129.38 -54.17,-192.87 -61.44,-133.63 -222.91,-243.68 -246.44,-305.51 198.34,49.18 257.37,89.57 340.93,248.8 21.39,40.77 29.58,82.44 72.14,111.31 11.19,-271.05 -167.65,-502.56 -347.42,-653.91 -67.81,-57.09 -144.3,-105.5 -207.95,-162.16 107.73,-22.3 415.48,119.53 503.69,201.45 102.4,95.09 269.95,337.87 292.25,353.24 -17.14,-179.46 -117.32,-333.33 -223.74,-450.9 -119.51,-132.03 -422.61,-282.81 -453.4,-321.88 90.75,-130.78 335.43,-80.87 475.12,-28.65 65.57,24.52 92.44,60.31 153.44,88.35 -23.04,-126.46 -147.97,-263.61 -345.85,-279.5 -175.86,-14.12 -281.12,82.87 -443.74,86.93 53.6,-214.04 382.78,-211.1 590.62,-112.55 -2.31,-128.19 -212.3,-204.9 -353.54,-205.55 -164.25,-0.75 -273.99,35.72 -412.3,46 -40.2,-145.15 96.49,-282.27 177.41,-330.84 148.22,-88.97 194.78,-62.2 375.02,-83.34l-35.18 -25.61c-186.31,-90.34 -402.1,-19.81 -527.57,126.05 -54.48,63.33 -78.7,149.13 -112.68,192.17 -41.42,-141.64 1.54,-248.46 -86.83,-439.73 -45.27,-98 -148.44,-269.74 -277.6,-328.05 46.85,238.14 282.31,446.95 13.13,729.07z"/>
   <path class="fil2" d="M4244.61 2552.82c-9.82,-97.45 15.51,-154.15 -29.56,-187.48 -42.7,178.53 -166.17,457.59 -331.75,464.25 -285.85,11.5 -19.92,-433.94 -214.35,-466.91 -60.8,135.28 67.89,339.89 -84.24,394.23 -79.7,28.47 -160.64,-39.08 -200.25,-84.14 -81.31,-92.48 -74.84,-141.63 -111.73,-169.72 -92.75,112.19 -251.7,169.91 -320.68,99.01l-34.88 -45.63c-52.83,30.86 -94.76,52.38 -149.44,81.28 -134.86,71.29 -355.71,167.33 -368.02,408.72 354.45,-576.79 1139.46,-325.67 1255.91,350.22 16.4,95.19 -0.61,193.53 11.61,265.3 38.93,10.77 243.02,12.18 275.64,0.76 -37.62,-242.17 -41.74,-425.11 125.06,-653 114.62,-156.59 294.08,-275.42 499.41,-296.88 354.73,-37.07 656.93,207.56 710.6,531.76 24.91,150.5 -4.83,220.75 -42.29,375.71 23.17,27.2 45.02,37.16 70.65,69.71 -20.37,135.51 -196.05,141.9 -242.26,149.37 -39.78,6.43 -137.59,106.33 -249.9,148.7 -301.13,113.6 -436.73,39.29 -683.22,-6.54 -66.03,366.21 -521.21,280.67 -641.08,90.98 -11.53,-18.24 -11.98,-22.83 -19.59,-45.14l-22.96 -52.28c-165.8,63.61 -246.44,119.29 -513.79,73.71 -269.34,-45.92 -364.84,-89.44 -565.5,-227.27l45.71 -66.2c-169.99,-212.03 -124.71,-366.59 -71.31,-634.6 -1.97,-2.2 -4.43,-8.29 -6.06,-6.45 -1.61,1.81 -4.63,-5.09 -5.87,-6.51l-47.63 -50.33c-138.38,431.91 -20.59,486.56 -251.1,967.65 -157.07,-25.84 -376.74,-91.1 -507.14,-35.1 -38.06,140.23 -4.27,384.52 43.46,489.6 80.02,176.19 257.56,287.94 397.7,234.38 -6.05,-34.77 -16.54,-41.24 -29.45,-77.89 -38.61,-109.57 -63.56,-399.3 -44.02,-496.16 15.24,-75.59 79.19,-126.03 145.52,-84.44 -146.19,729.74 361.17,1104.69 908.11,1456.38 202.52,130.22 638.1,432.2 895.34,460.33 262.66,28.72 596.91,-292.22 770.91,-400.81 241.02,-150.42 451.22,-237.66 698.5,-504.17 212.83,-229.39 379.8,-576.91 333.23,-927.72l-109.97 -434.29c-28.15,-77.8 -52.44,-120.34 -101.57,-184.04 -68.82,-89.23 12.32,-449.81 -524.89,-948.92 -33.32,28.62 -35.45,97.45 -216.31,102.15 -11.67,-154.41 -20.62,-363.7 -164.01,-409.48 -49.99,156.15 -123.91,325.73 -282.55,287.91z"/>
   <path class="fil0" d="M2551.46 4506.47c21.5,-44.2 40,-34.33 44.7,-86.74 -166.24,-78.81 -254.57,221.87 -119.3,281.68 19.93,-61.56 -11.3,-105.02 42.13,-94.65 18.34,3.56 86.12,50.07 118.6,62.22 207.65,77.71 96.23,7.63 256.44,223.28 199.2,268.12 660.73,835.41 993.88,805.94 357.79,-31.65 689.39,-551.17 875.01,-883.85 84.84,-152.06 39.28,-24.19 297.15,-148.71 113.58,-54.85 126.57,-95.57 183.32,-134.23 20.29,36.85 4.04,20.91 9.56,39.63 12.89,43.63 -21.01,8.96 22.42,42.03 27.7,-56.02 51.21,-129.02 38.06,-190.82 -14.35,-67.45 -46.41,-85.44 -124.51,-106.67 -33.61,168.55 -30.48,204.75 -165.48,273.46 -97.74,49.76 -205.47,62.98 -316.3,72.13 -335.54,27.69 -481.81,-41.89 -751.13,-58.01 -371.25,-22.21 -1162.21,144.97 -1404.56,-96.69z"/>
   <path class="fil3" d="M2913.22 4750.37c45.29,88.58 278.94,421.03 343.85,500.03 126.32,153.74 285.26,328 542.32,385.74 388.67,87.31 865.86,-695.69 894.22,-859.1 -336.53,-103.88 -1163.08,-70.3 -1568.2,-46.27 -66.12,3.92 -159.54,-9.15 -212.19,19.61z"/>
   <path class="fil4" d="M3565.29 3771.43c40.23,-108.68 50.76,-90.67 49.93,-217.71 -1.36,-206.22 -57.24,-366.59 -187.79,-519.83 -141.52,-166.13 -753.98,-3.67 -819.26,613.44 -6.15,58.15 -5.65,152.18 5.82,204.92 26.74,122.87 411.71,205.9 608.83,158.1 65.54,-15.89 120.16,-40.22 166.86,-68 57.15,-33.99 80.35,-65.4 125.39,-107.39l20.47 -17.61"/>
   <path class="fil5" d="M4346.13 2947.42c-139.66,-17.74 -187.33,-51.18 -308.38,220.98 -207.98,467.61 0.08,576.85 74.87,700.35 29.8,49.22 7.86,48.83 67.93,73.25 285.86,116.22 578.76,63.33 803.35,-110.51 64.26,-49.74 48.37,-129.7 41.03,-208 -31.09,-331.82 -259.92,-622.87 -678.79,-676.07z"/>
   <path class="fil0" d="M3981.92 4812.53c-75.1,-3.91 -82.66,4.3 -143.38,19.59 -45.94,11.58 -301.16,-86.97 -394,100.01 -83.77,168.73 121.53,381.06 234.05,462.04 204.65,147.28 355.5,-3.6 465.2,-149.47 146.57,-194.88 112.61,-417.86 -161.88,-432.18z"/>
   <path class="fil2" d="M5689.85 3946.33c59.8,45.08 24.55,-37.42 40.7,150.97 19.4,226.22 65.78,267.25 0.24,545.95 188.59,25.48 226.03,-24.99 314.28,-177.51 74.41,-128.6 222.1,-493.75 132.25,-646.11 -118.41,-200.78 -361.44,77.79 -487.48,126.7z"/>
   <path class="fil2" d="M3867.99 4850.94c-17.24,58.7 20.78,154.93 -28.59,198.35 -17.22,-48.31 -37.62,-136.16 -48.59,-175.35 -473.08,-161.45 -374.37,457.01 28.94,539.07 162.29,33.02 264.15,-121.87 328.99,-282.64 45.36,-112.44 77.68,-162.39 -13.52,-227.76 -72.91,-52.26 -185.33,-70.85 -267.23,-51.67z"/>
   <path class="fil1" d="M5704.28 2854.93c69.76,10.7 117.81,-13.98 161.65,-44.58 27.96,-76.07 18.68,-79.25 16.45,-149.29 27.3,-21.34 85.65,-31.65 91.96,-83.2 -8.04,-56.8 -27.12,-93.43 -97.42,-107.21 -31.11,24.86 -63.02,69.58 -84.5,97.1 80.7,92.26 11.67,180.11 -73.46,158.56 -8.8,-74.38 27.09,-83.88 3.44,-152.07 -21.16,16.37 -2.6,-9.5 -25.52,52.22 -10.79,29.05 1.78,17.86 -24.48,48.44 -30.67,-12.65 -15.21,9.93 -16.71,-90.09 -0.62,-41.34 -10.35,-67.54 -4.54,-109.85 44.49,22.17 32.82,53.64 83.35,43.04 32.35,-6.79 63.42,-39.77 72.91,-76.27 11.11,-42.73 -1.55,-82.42 -17.8,-107.04 -26.81,-40.63 -46.46,-35.86 -85.41,-60.41 31.23,-42.13 84.17,-127.77 30.03,-173.52 -85.89,-57.91 -153.5,-9.48 -214.33,4.45 -46.38,-27.07 -80.95,-54.22 -132.38,-40.36 -55.29,32.45 -12.04,56.13 -69.23,91.57 -50.6,-78.09 53.53,-155.33 -0.8,-200.24 -142.13,-117.48 -302.44,101.4 -189.77,208.05 29.43,27.86 122.09,78.75 163.72,111.29 182.96,142.96 345.62,379.06 412.82,579.41z"/>
   <path class="fil6" d="M2480.68 3731.96c-24.37,-75.07 -96.57,-70.45 -110.13,-167.58 25.34,-40.58 114.95,-86.56 155.69,-161.66 -53.94,-50.34 -74.78,-89.35 -40.45,-181.16 130.06,-13.84 179.72,80.31 157.57,-114.6 -5.39,-47.46 -2.81,-79.45 18.13,-125.04 62.74,-9.52 157.93,36.36 213.26,22.66 33.55,-31.63 32.7,-100.35 76.67,-152.93 62.79,9.88 180.21,131.29 233.96,-15.66l-17.52 -13.44c-65.43,-37.36 41.37,16.61 -19.27,-10.98 -377.81,-171.91 -855.87,171.43 -825.39,630.87 7.24,109.14 52.51,255 157.49,289.52z"/>
   <path class="fil5" d="M5821.34 3711.77c86.09,6.64 145.8,-126.07 368.83,-72.3 -10.44,-107.39 21.47,-119.12 33.45,-215.53 -75.94,-20 -64.68,78.11 -164.78,33.91 55.12,-271.22 46.32,-486.47 -266.48,-529.26 -6.63,208.55 111.02,327.55 28.97,783.18z"/>
   <path class="fil6" d="M4395.46 2808.3c48.47,127.26 162.74,11.26 254.03,31.48 16.59,55.23 -8.82,51.67 15.18,89.85 122.75,29.92 147.89,-7.44 222.96,5 8.77,50.27 -5.26,105.74 -21.59,161.06 196.67,59.5 151.61,16.94 236.2,18.82 76.53,96.67 5.98,158.93 -23.09,248.9l135.65 46.88c23.72,102.33 -120.31,135.35 -61.16,206.35 149.69,-70.69 161.43,-705.36 -389.93,-846.04 -115.58,-29.49 -306.69,-36.89 -368.24,37.7z"/>
   <path class="fil0" d="M1184.21 1119.25c138.78,30.51 425.43,102.35 441.6,225.46 -182.8,-48.66 -365.61,34.71 -440.78,136.35 84.47,-52.1 182.83,-80.48 312.32,-63.36 196.68,26 222.33,63.7 362.28,143.75 19.46,-132.06 -105.56,-279.61 -202.83,-353.6 -100.01,-76.07 -373.22,-169.31 -472.59,-88.59z"/>
   <path class="fil0" d="M6094.67 1711.13c18.09,21.67 50.67,35.94 72.62,56.8 64.06,60.89 104.31,151.34 144.04,234.7 40.86,85.7 136.44,254.21 304.2,181.01 -78.6,-49.94 -137.26,-36.05 -213.41,-197.71 -29.29,-62.18 -58.3,-144.87 -93.44,-189.4 -23.04,-29.18 -33.07,-32.44 -36.98,-64.71 123.43,-52.68 290.81,9.98 438.21,49.06 -35.93,-124.37 -342.27,-189.81 -478.32,-134.99 -23.91,9.63 -43.91,28.52 -61.91,38.52 -50.06,27.83 -37.66,-4.74 -75.03,26.73z"/>
   <path class="fil0" d="M918.93 2304.1c167.23,25.72 184.45,-307.42 294.38,-416.85 99.74,-99.29 253.26,-116.96 381.15,-150.56l68.31 -32.18c-220.79,-51.71 -397,-28.36 -510.07,82.37 -166.59,163.14 -77.99,408.4 -233.78,517.22z"/>
   <path class="fil0" d="M2169.16 1664.48c169.44,49.19 276.61,-321.63 201.81,-456.74 -18.83,55.32 -16.27,220.6 -82.83,231 -18.52,-132.29 26.68,-393.79 -288.54,-474.99 83.92,82.15 153.46,173.96 182.51,287.06 14.75,57.43 21.24,124.13 19.51,187.07 -2.31,84.59 -25.81,149.78 -32.47,226.59z"/>
   <path class="fil0" d="M1069.51 2326.2c79.93,-4.5 149.03,-148.35 222.3,-206.66 21.01,51.95 -39.51,276.6 120.35,363.49 0.86,-28.63 -147.74,-446.83 199.3,-615.29 -260.85,-46.02 -419.24,245.48 -541.95,458.46z"/>
   <path class="fil0" d="M6081.07 2611.78c144.17,-8.72 168.6,-210.36 216.35,-352.49 8.34,4.28 208.37,149.21 278.78,47.33 -331.96,-2.2 -244.44,-325.99 -513.15,-375.05 221.26,141.61 116.23,428.13 18.02,680.2z"/>
   <path class="fil0" d="M2810.91 2083.44c47.33,-6.09 36.46,-22.84 93.59,-83.34 30.52,-32.32 61.02,-56.8 112.46,-50.59 -52.71,78.9 -112.93,80.71 -134.51,222.57 91.02,-17.81 195.7,-225.87 427.13,-221.76 28.47,0.5 56.46,5.26 79.3,-7.44 -183.74,-172.83 -546.68,-105.68 -577.98,140.57z"/>
   <path class="fil5" d="M3243.79 2969.3c139.66,-17.74 187.33,-51.18 308.38,220.98 207.98,467.61 -0.08,576.85 -74.87,700.35 -29.8,49.22 -7.86,48.83 -67.93,73.25 -285.86,116.22 -578.76,63.33 -803.35,-110.51 -64.26,-49.74 -48.37,-129.7 -41.03,-208 31.09,-331.82 259.92,-622.87 678.79,-676.07z"/>
   <path class="fil7" d="M3885.84 3722.86c-73.69,-9.36 -289.48,9.11 -338.78,75.55 -44.12,79.04 -30.96,203.21 -9.14,237.46 15.72,25.97 92.48,98.8 124.17,111.69 150.84,61.32 222.07,59.46 340.58,-32.27 33.91,-26.25 83.85,-96.47 90.4,-141.01 -38.28,-212.59 -52.02,-200.09 -207.24,-251.42z"/>
  </g>
 </g>
</svg>
